<mxfile host="Electron" agent="Mozilla/5.0 (Windows NT 10.0; Win64; x64) AppleWebKit/537.36 (KHTML, like Gecko) draw.io/24.7.17 Chrome/128.0.6613.36 Electron/32.0.1 Safari/537.36" version="24.7.17">
  <diagram id="C5RBs43oDa-KdzZeNtuy" name="Page-1">
    <mxGraphModel dx="1120" dy="532" grid="1" gridSize="10" guides="1" tooltips="1" connect="1" arrows="1" fold="1" page="1" pageScale="1" pageWidth="827" pageHeight="1169" math="0" shadow="0">
      <root>
        <mxCell id="WIyWlLk6GJQsqaUBKTNV-0" />
        <mxCell id="WIyWlLk6GJQsqaUBKTNV-1" parent="WIyWlLk6GJQsqaUBKTNV-0" />
        <mxCell id="AswjKZFrVj5O9fZ2A_AB-19" value="" style="edgeStyle=orthogonalEdgeStyle;rounded=0;orthogonalLoop=1;jettySize=auto;html=1;" edge="1" parent="WIyWlLk6GJQsqaUBKTNV-1">
          <mxGeometry relative="1" as="geometry">
            <mxPoint x="391" y="260" as="sourcePoint" />
            <mxPoint x="391" y="310" as="targetPoint" />
          </mxGeometry>
        </mxCell>
        <mxCell id="AswjKZFrVj5O9fZ2A_AB-21" value="" style="edgeStyle=orthogonalEdgeStyle;rounded=0;orthogonalLoop=1;jettySize=auto;html=1;" edge="1" parent="WIyWlLk6GJQsqaUBKTNV-1" target="AswjKZFrVj5O9fZ2A_AB-20">
          <mxGeometry relative="1" as="geometry">
            <mxPoint x="391" y="350" as="sourcePoint" />
          </mxGeometry>
        </mxCell>
        <mxCell id="AswjKZFrVj5O9fZ2A_AB-3" value="" style="edgeStyle=orthogonalEdgeStyle;rounded=0;orthogonalLoop=1;jettySize=auto;html=1;" edge="1" parent="WIyWlLk6GJQsqaUBKTNV-1">
          <mxGeometry relative="1" as="geometry">
            <mxPoint x="390" y="68" as="sourcePoint" />
            <mxPoint x="390" y="118" as="targetPoint" />
          </mxGeometry>
        </mxCell>
        <mxCell id="AswjKZFrVj5O9fZ2A_AB-2" value="" style="ellipse;whiteSpace=wrap;html=1;aspect=fixed;fillColor=#000000;" vertex="1" parent="WIyWlLk6GJQsqaUBKTNV-1">
          <mxGeometry x="376" y="40" width="30" height="30" as="geometry" />
        </mxCell>
        <mxCell id="AswjKZFrVj5O9fZ2A_AB-4" value="Get Data from User" style="shape=parallelogram;perimeter=parallelogramPerimeter;whiteSpace=wrap;html=1;fixedSize=1;" vertex="1" parent="WIyWlLk6GJQsqaUBKTNV-1">
          <mxGeometry x="331" y="120" width="129" height="50" as="geometry" />
        </mxCell>
        <mxCell id="AswjKZFrVj5O9fZ2A_AB-5" value="" style="endArrow=classic;html=1;rounded=0;" edge="1" parent="WIyWlLk6GJQsqaUBKTNV-1">
          <mxGeometry width="50" height="50" relative="1" as="geometry">
            <mxPoint x="390" y="170" as="sourcePoint" />
            <mxPoint x="390" y="220" as="targetPoint" />
          </mxGeometry>
        </mxCell>
        <mxCell id="AswjKZFrVj5O9fZ2A_AB-36" value="" style="edgeStyle=orthogonalEdgeStyle;rounded=0;orthogonalLoop=1;jettySize=auto;html=1;" edge="1" parent="WIyWlLk6GJQsqaUBKTNV-1" target="AswjKZFrVj5O9fZ2A_AB-35">
          <mxGeometry relative="1" as="geometry">
            <mxPoint x="391" y="916" as="sourcePoint" />
          </mxGeometry>
        </mxCell>
        <mxCell id="AswjKZFrVj5O9fZ2A_AB-16" value="" style="endArrow=classic;html=1;rounded=0;exitX=0.5;exitY=1;exitDx=0;exitDy=0;entryX=0.5;entryY=0;entryDx=0;entryDy=0;" edge="1" parent="WIyWlLk6GJQsqaUBKTNV-1">
          <mxGeometry width="50" height="50" relative="1" as="geometry">
            <mxPoint x="391" y="586" as="sourcePoint" />
            <mxPoint x="391" y="626" as="targetPoint" />
          </mxGeometry>
        </mxCell>
        <mxCell id="AswjKZFrVj5O9fZ2A_AB-22" value="" style="edgeStyle=orthogonalEdgeStyle;rounded=0;orthogonalLoop=1;jettySize=auto;html=1;" edge="1" parent="WIyWlLk6GJQsqaUBKTNV-1" source="AswjKZFrVj5O9fZ2A_AB-20">
          <mxGeometry relative="1" as="geometry">
            <mxPoint x="391" y="546" as="targetPoint" />
          </mxGeometry>
        </mxCell>
        <mxCell id="AswjKZFrVj5O9fZ2A_AB-28" value="" style="edgeStyle=orthogonalEdgeStyle;rounded=0;orthogonalLoop=1;jettySize=auto;html=1;" edge="1" parent="WIyWlLk6GJQsqaUBKTNV-1" source="AswjKZFrVj5O9fZ2A_AB-20" target="AswjKZFrVj5O9fZ2A_AB-27">
          <mxGeometry relative="1" as="geometry" />
        </mxCell>
        <mxCell id="AswjKZFrVj5O9fZ2A_AB-20" value="Data Cleaning Required?" style="strokeWidth=2;html=1;shape=mxgraph.flowchart.decision;whiteSpace=wrap;" vertex="1" parent="WIyWlLk6GJQsqaUBKTNV-1">
          <mxGeometry x="332.75" y="380" width="118.25" height="110" as="geometry" />
        </mxCell>
        <mxCell id="AswjKZFrVj5O9fZ2A_AB-23" value="No" style="text;html=1;align=center;verticalAlign=middle;whiteSpace=wrap;rounded=0;" vertex="1" parent="WIyWlLk6GJQsqaUBKTNV-1">
          <mxGeometry x="400" y="480" width="60" height="30" as="geometry" />
        </mxCell>
        <mxCell id="AswjKZFrVj5O9fZ2A_AB-27" value="Clean and Prepare Data" style="rounded=0;whiteSpace=wrap;html=1;" vertex="1" parent="WIyWlLk6GJQsqaUBKTNV-1">
          <mxGeometry x="170" y="415" width="100" height="40" as="geometry" />
        </mxCell>
        <mxCell id="AswjKZFrVj5O9fZ2A_AB-31" value="" style="endArrow=none;html=1;rounded=0;exitX=0.5;exitY=1;exitDx=0;exitDy=0;" edge="1" parent="WIyWlLk6GJQsqaUBKTNV-1" source="AswjKZFrVj5O9fZ2A_AB-27">
          <mxGeometry width="50" height="50" relative="1" as="geometry">
            <mxPoint x="400" y="420" as="sourcePoint" />
            <mxPoint x="220" y="570" as="targetPoint" />
          </mxGeometry>
        </mxCell>
        <mxCell id="AswjKZFrVj5O9fZ2A_AB-32" value="" style="endArrow=classic;html=1;rounded=0;" edge="1" parent="WIyWlLk6GJQsqaUBKTNV-1">
          <mxGeometry width="50" height="50" relative="1" as="geometry">
            <mxPoint x="220" y="570" as="sourcePoint" />
            <mxPoint x="330" y="570" as="targetPoint" />
          </mxGeometry>
        </mxCell>
        <mxCell id="AswjKZFrVj5O9fZ2A_AB-33" value="Yes" style="text;html=1;align=center;verticalAlign=middle;whiteSpace=wrap;rounded=0;" vertex="1" parent="WIyWlLk6GJQsqaUBKTNV-1">
          <mxGeometry x="280" y="400" width="60" height="30" as="geometry" />
        </mxCell>
        <mxCell id="AswjKZFrVj5O9fZ2A_AB-34" value="" style="strokeWidth=2;html=1;shape=mxgraph.flowchart.start_2;whiteSpace=wrap;" vertex="1" parent="WIyWlLk6GJQsqaUBKTNV-1">
          <mxGeometry x="372" y="950" width="39" height="40" as="geometry" />
        </mxCell>
        <mxCell id="AswjKZFrVj5O9fZ2A_AB-35" value="" style="strokeWidth=2;html=1;shape=mxgraph.flowchart.start_2;whiteSpace=wrap;fillColor=#000000;" vertex="1" parent="WIyWlLk6GJQsqaUBKTNV-1">
          <mxGeometry x="381.5" y="960" width="20" height="20" as="geometry" />
        </mxCell>
        <mxCell id="AswjKZFrVj5O9fZ2A_AB-38" value="Store data in Database" style="rounded=0;whiteSpace=wrap;html=1;" vertex="1" parent="WIyWlLk6GJQsqaUBKTNV-1">
          <mxGeometry x="329.25" y="220" width="120" height="40" as="geometry" />
        </mxCell>
        <mxCell id="AswjKZFrVj5O9fZ2A_AB-39" value="Load Data into System" style="rounded=0;whiteSpace=wrap;html=1;" vertex="1" parent="WIyWlLk6GJQsqaUBKTNV-1">
          <mxGeometry x="329.25" y="310" width="120" height="40" as="geometry" />
        </mxCell>
        <mxCell id="AswjKZFrVj5O9fZ2A_AB-40" value="Analyze Scenerio" style="rounded=0;whiteSpace=wrap;html=1;" vertex="1" parent="WIyWlLk6GJQsqaUBKTNV-1">
          <mxGeometry x="329.25" y="544.5" width="120" height="40" as="geometry" />
        </mxCell>
        <mxCell id="AswjKZFrVj5O9fZ2A_AB-47" value="" style="edgeStyle=orthogonalEdgeStyle;rounded=0;orthogonalLoop=1;jettySize=auto;html=1;entryX=0.5;entryY=0;entryDx=0;entryDy=0;" edge="1" parent="WIyWlLk6GJQsqaUBKTNV-1" source="AswjKZFrVj5O9fZ2A_AB-41" target="AswjKZFrVj5O9fZ2A_AB-42">
          <mxGeometry relative="1" as="geometry" />
        </mxCell>
        <mxCell id="AswjKZFrVj5O9fZ2A_AB-41" value="Apply AI Algo for prediction" style="rounded=0;whiteSpace=wrap;html=1;" vertex="1" parent="WIyWlLk6GJQsqaUBKTNV-1">
          <mxGeometry x="329.25" y="630" width="120" height="40" as="geometry" />
        </mxCell>
        <mxCell id="AswjKZFrVj5O9fZ2A_AB-42" value="Analyze results of prediction" style="rounded=0;whiteSpace=wrap;html=1;" vertex="1" parent="WIyWlLk6GJQsqaUBKTNV-1">
          <mxGeometry x="329.25" y="700" width="120" height="40" as="geometry" />
        </mxCell>
        <mxCell id="AswjKZFrVj5O9fZ2A_AB-46" value="" style="edgeStyle=orthogonalEdgeStyle;rounded=0;orthogonalLoop=1;jettySize=auto;html=1;" edge="1" parent="WIyWlLk6GJQsqaUBKTNV-1" source="AswjKZFrVj5O9fZ2A_AB-43" target="AswjKZFrVj5O9fZ2A_AB-44">
          <mxGeometry relative="1" as="geometry" />
        </mxCell>
        <mxCell id="AswjKZFrVj5O9fZ2A_AB-43" value="Generate personalized Recommendations" style="rounded=0;whiteSpace=wrap;html=1;" vertex="1" parent="WIyWlLk6GJQsqaUBKTNV-1">
          <mxGeometry x="329.25" y="780" width="120" height="51" as="geometry" />
        </mxCell>
        <mxCell id="AswjKZFrVj5O9fZ2A_AB-44" value="Present Analysis on Dasboard to User" style="rounded=0;whiteSpace=wrap;html=1;" vertex="1" parent="WIyWlLk6GJQsqaUBKTNV-1">
          <mxGeometry x="329.25" y="876" width="120" height="40" as="geometry" />
        </mxCell>
        <mxCell id="AswjKZFrVj5O9fZ2A_AB-48" value="" style="edgeStyle=orthogonalEdgeStyle;rounded=0;orthogonalLoop=1;jettySize=auto;html=1;" edge="1" parent="WIyWlLk6GJQsqaUBKTNV-1">
          <mxGeometry relative="1" as="geometry">
            <mxPoint x="390" y="741" as="sourcePoint" />
            <mxPoint x="390" y="780" as="targetPoint" />
          </mxGeometry>
        </mxCell>
      </root>
    </mxGraphModel>
  </diagram>
</mxfile>
